<?xml version="1.0" encoding="utf-8"?>
<svg width="30px" height="25px" viewBox="0 0 30 25" version="1.1" xmlns:xlink="http://www.w3.org/1999/xlink" xmlns="http://www.w3.org/2000/svg">
  <g id="berger">
    <path d="M2.499 0L27.501 0Q27.6238 0 27.7459 0.0120334Q27.8681 0.0240667 27.9885 0.0480176Q28.1089 0.0719684 28.2264 0.107606Q28.3439 0.143244 28.4573 0.190225Q28.5707 0.237206 28.679 0.295079Q28.7873 0.352951 28.8894 0.421157Q28.9914 0.489364 29.0863 0.567247Q29.1812 0.64513 29.2681 0.73194Q29.3549 0.81875 29.4328 0.913651Q29.5106 1.00855 29.5788 1.11063Q29.647 1.21271 29.7049 1.32098Q29.7628 1.42925 29.8098 1.54267Q29.8568 1.6561 29.8924 1.77358Q29.928 1.89106 29.952 2.01147Q29.9759 2.13188 29.988 2.25406Q30 2.37623 30 2.499L30 2.501Q30 2.62377 29.988 2.74594Q29.9759 2.86812 29.952 2.98853Q29.928 3.10894 29.8924 3.22642Q29.8568 3.3439 29.8098 3.45733Q29.7628 3.57075 29.7049 3.67902Q29.647 3.78729 29.5788 3.88937Q29.5106 3.99145 29.4328 4.08635Q29.3549 4.18125 29.2681 4.26806Q29.1812 4.35487 29.0863 4.43275Q28.9914 4.51064 28.8894 4.57884Q28.7873 4.64705 28.679 4.70492Q28.5707 4.76279 28.4573 4.80977Q28.3439 4.85676 28.2264 4.89239Q28.1089 4.92803 27.9885 4.95198Q27.8681 4.97593 27.7459 4.98797Q27.6238 5 27.501 5L2.499 5Q2.37623 5 2.25406 4.98797Q2.13188 4.97593 2.01147 4.95198Q1.89106 4.92803 1.77358 4.89239Q1.6561 4.85676 1.54267 4.80977Q1.42925 4.76279 1.32098 4.70492Q1.21271 4.64705 1.11063 4.57884Q1.00855 4.51064 0.913651 4.43275Q0.81875 4.35487 0.73194 4.26806Q0.64513 4.18125 0.567247 4.08635Q0.489364 3.99145 0.421157 3.88937Q0.352951 3.78729 0.295079 3.67902Q0.237206 3.57075 0.190225 3.45733Q0.143244 3.3439 0.107606 3.22642Q0.0719684 3.10894 0.0480176 2.98853Q0.0240667 2.86812 0.0120334 2.74594Q0 2.62377 0 2.501L0 2.499Q0 2.37623 0.0120334 2.25406Q0.0240667 2.13188 0.0480176 2.01147Q0.0719684 1.89106 0.107606 1.77358Q0.143244 1.6561 0.190225 1.54267Q0.237206 1.42925 0.295079 1.32098Q0.352951 1.21271 0.421157 1.11063Q0.489364 1.00855 0.567247 0.913651Q0.64513 0.81875 0.73194 0.73194Q0.81875 0.64513 0.913651 0.567247Q1.00855 0.489364 1.11063 0.421157Q1.21271 0.352951 1.32098 0.295079Q1.42925 0.237206 1.54267 0.190225Q1.6561 0.143244 1.77358 0.107606Q1.89106 0.0719684 2.01147 0.0480176Q2.13188 0.0240667 2.25406 0.0120334Q2.37623 0 2.499 0Z" id="Rectangle" fill="#101010" fill-rule="evenodd" stroke="none" />
    <path d="M2.499 10L27.501 10Q27.6238 10 27.7459 10.012Q27.8681 10.0241 27.9885 10.048Q28.1089 10.072 28.2264 10.1076Q28.3439 10.1432 28.4573 10.1902Q28.5707 10.2372 28.679 10.2951Q28.7873 10.353 28.8894 10.4212Q28.9914 10.4894 29.0863 10.5672Q29.1812 10.6451 29.2681 10.7319Q29.3549 10.8188 29.4328 10.9137Q29.5106 11.0086 29.5788 11.1106Q29.647 11.2127 29.7049 11.321Q29.7628 11.4292 29.8098 11.5427Q29.8568 11.6561 29.8924 11.7736Q29.928 11.8911 29.952 12.0115Q29.9759 12.1319 29.988 12.2541Q30 12.3762 30 12.499L30 12.501Q30 12.6238 29.988 12.7459Q29.9759 12.8681 29.952 12.9885Q29.928 13.1089 29.8924 13.2264Q29.8568 13.3439 29.8098 13.4573Q29.7628 13.5707 29.7049 13.679Q29.647 13.7873 29.5788 13.8894Q29.5106 13.9914 29.4328 14.0863Q29.3549 14.1813 29.2681 14.2681Q29.1812 14.3549 29.0863 14.4328Q28.9914 14.5106 28.8894 14.5788Q28.7873 14.647 28.679 14.7049Q28.5707 14.7628 28.4573 14.8098Q28.3439 14.8568 28.2264 14.8924Q28.1089 14.928 27.9885 14.952Q27.8681 14.9759 27.7459 14.988Q27.6238 15 27.501 15L2.499 15Q2.37623 15 2.25406 14.988Q2.13188 14.9759 2.01147 14.952Q1.89106 14.928 1.77358 14.8924Q1.6561 14.8568 1.54267 14.8098Q1.42925 14.7628 1.32098 14.7049Q1.21271 14.647 1.11063 14.5788Q1.00855 14.5106 0.913651 14.4328Q0.81875 14.3549 0.73194 14.2681Q0.64513 14.1813 0.567247 14.0863Q0.489364 13.9914 0.421157 13.8894Q0.352951 13.7873 0.295079 13.679Q0.237206 13.5707 0.190225 13.4573Q0.143244 13.3439 0.107606 13.2264Q0.0719684 13.1089 0.0480176 12.9885Q0.0240667 12.8681 0.0120334 12.7459Q0 12.6238 0 12.501L0 12.499Q0 12.3762 0.0120334 12.2541Q0.0240667 12.1319 0.0480176 12.0115Q0.0719684 11.8911 0.107606 11.7736Q0.143244 11.6561 0.190225 11.5427Q0.237206 11.4292 0.295079 11.321Q0.352951 11.2127 0.421157 11.1106Q0.489364 11.0086 0.567247 10.9136Q0.64513 10.8188 0.73194 10.7319Q0.81875 10.6451 0.913651 10.5672Q1.00855 10.4894 1.11063 10.4212Q1.21271 10.353 1.32098 10.2951Q1.42925 10.2372 1.54267 10.1902Q1.6561 10.1432 1.77358 10.1076Q1.89106 10.072 2.01147 10.048Q2.13188 10.0241 2.25406 10.012Q2.37623 10 2.499 10Z" id="Rectangle-Copy" fill="#101010" fill-rule="evenodd" stroke="none" />
    <path d="M2.499 20L27.501 20Q27.6238 20 27.7459 20.012Q27.8681 20.0241 27.9885 20.048Q28.1089 20.072 28.2264 20.1076Q28.3439 20.1432 28.4573 20.1902Q28.5707 20.2372 28.679 20.2951Q28.7873 20.353 28.8894 20.4212Q28.9914 20.4894 29.0863 20.5672Q29.1812 20.6451 29.2681 20.7319Q29.3549 20.8188 29.4328 20.9137Q29.5106 21.0086 29.5788 21.1106Q29.647 21.2127 29.7049 21.321Q29.7628 21.4293 29.8098 21.5427Q29.8568 21.6561 29.8924 21.7736Q29.928 21.8911 29.952 22.0115Q29.9759 22.1319 29.988 22.2541Q30 22.3762 30 22.499L30 22.501Q30 22.6238 29.988 22.7459Q29.9759 22.8681 29.952 22.9885Q29.928 23.1089 29.8924 23.2264Q29.8568 23.3439 29.8098 23.4573Q29.7628 23.5707 29.7049 23.679Q29.647 23.7873 29.5788 23.8894Q29.5106 23.9914 29.4328 24.0863Q29.3549 24.1812 29.2681 24.2681Q29.1812 24.3549 29.0863 24.4328Q28.9914 24.5106 28.8894 24.5788Q28.7873 24.647 28.679 24.7049Q28.5707 24.7628 28.4573 24.8098Q28.3439 24.8568 28.2264 24.8924Q28.1089 24.928 27.9885 24.952Q27.8681 24.9759 27.7459 24.988Q27.6238 25 27.501 25L2.499 25Q2.37623 25 2.25406 24.988Q2.13188 24.9759 2.01147 24.952Q1.89106 24.928 1.77358 24.8924Q1.6561 24.8568 1.54267 24.8098Q1.42925 24.7628 1.32098 24.7049Q1.21271 24.647 1.11063 24.5788Q1.00855 24.5106 0.913651 24.4328Q0.81875 24.3549 0.73194 24.2681Q0.64513 24.1812 0.567247 24.0863Q0.489364 23.9914 0.421157 23.8894Q0.352951 23.7873 0.295079 23.679Q0.237206 23.5707 0.190225 23.4573Q0.143244 23.3439 0.107606 23.2264Q0.0719684 23.1089 0.0480176 22.9885Q0.0240667 22.8681 0.0120334 22.7459Q0 22.6238 0 22.501L0 22.499Q0 22.3762 0.0120334 22.2541Q0.0240667 22.1319 0.0480176 22.0115Q0.0719684 21.8911 0.107606 21.7736Q0.143244 21.6561 0.190225 21.5427Q0.237206 21.4293 0.295079 21.321Q0.352951 21.2127 0.421157 21.1106Q0.489364 21.0086 0.567247 20.9137Q0.64513 20.8188 0.73194 20.7319Q0.81875 20.6451 0.913651 20.5672Q1.00855 20.4894 1.11063 20.4212Q1.21271 20.353 1.32098 20.2951Q1.42925 20.2372 1.54267 20.1902Q1.6561 20.1432 1.77358 20.1076Q1.89106 20.072 2.01147 20.048Q2.13188 20.0241 2.25406 20.012Q2.37623 20 2.499 20Z" id="Rectangle-Copy-2" fill="#101010" fill-rule="evenodd" stroke="none" />
  </g>
</svg>