<?xml version="1.0" encoding="utf-8"?>
<svg width="30px" height="29px" viewBox="0 0 30 29" version="1.1" xmlns:xlink="http://www.w3.org/1999/xlink" xmlns="http://www.w3.org/2000/svg">
  <g id="beauty" transform="translate(0.5 0.5)">
    <g id="Group-2">
      <path d="M0 14C0 6.26801 6.49187 0 14.5 0C22.5081 0 29 6.26801 29 14C29 21.732 22.5081 28 14.5 28C6.49187 28 0 21.732 0 14Z" id="Ellipse-2" fill="#000000" fill-rule="evenodd" stroke="none" />
      <path d="M12.3226 10.8464C11.5497 11.407 10.1761 10.3831 10.2178 9.32069C10.2594 8.25829 10.0642 7.99309 10.0642 7.99309L11.0727 8.46571C11.0727 8.46571 10.5369 6.30956 10.5442 6.03354C10.5516 5.75752 12.0429 7.25702 12.476 7.89568C12.9091 8.53434 12.9639 8.96907 12.9407 9.3425C12.9174 9.71593 13.0955 10.2858 12.3226 10.8464Z" id="New-shape-2" fill="none" fill-rule="evenodd" stroke="#FFFFFF" stroke-width="1" />
      <path d="M13.5352 13.5933C13.5352 13.5933 15.7721 22.7796 19.3477 23C20.4469 20.4772 14.5184 13.0054 14.5184 13.0054L14.5184 12.4316C14.5184 12.4316 14.3466 12.1419 14.0636 12.4316C13.7806 12.7214 13.4295 12.8609 13.1201 12.9466C12.8108 13.0323 13.0278 13.3246 13.0278 13.3246L13.5352 13.5933Z" id="New-shape" fill="#FFFFFF" fill-rule="evenodd" stroke="#FFFFFF" stroke-width="1" />
    </g>
  </g>
</svg>